<svg width="100" height="100" viewBox="0 0 100 100" fill="none" xmlns="http://www.w3.org/2000/svg">
  <path d="M45.4746 63.8344C49.8888 64.9682 59.8433 67.5249 61.3234 61.2175C62.8131 54.8258 53.4812 52.8136 48.7989 51.804C48.2426 51.684 47.7519 51.5782 47.3528 51.4809L44.5097 63.5902C44.7891 63.6583 45.1133 63.7416 45.4746 63.8344Z" fill="#F7931A"/>
  <path d="M49.4287 46.1254C53.1106 47.0774 61.4914 49.2443 62.843 43.4953C64.2141 37.7253 56.3926 36.0498 52.5244 35.2211C52.0593 35.1215 51.6514 35.0341 51.3234 34.9533L48.6764 45.9335C48.8966 45.9878 49.1491 46.0531 49.4287 46.1254Z" fill="#F7931A"/>
  <path fill-rule="evenodd" clip-rule="evenodd" d="M37.9104 98.5072C64.7289 105.183 91.8418 88.8368 98.5137 62.0675C105.169 35.2818 88.8492 8.08697 62.0144 1.49281C35.2613 -5.18317 8.16477 11.1632 1.49285 37.9325C-5.17907 64.7019 11.141 91.8149 37.9104 98.5072ZM62.5653 30.9769C69.5097 33.3333 74.5751 36.8188 73.6764 43.4953C72.9901 48.3554 70.343 50.7282 66.6829 51.5627C71.6829 54.1319 74.1829 58.0265 71.8953 64.8503C69.0522 73.4086 62.0424 74.1777 52.6633 72.5086L50.5064 81.6233L45.0162 80.2978L47.1731 71.3304C45.7842 70.9867 44.33 70.6267 42.794 70.2176L40.6371 79.2505L35.147 77.925L37.3038 68.8103C36.549 68.5915 35.764 68.4029 34.9672 68.2115C34.4531 68.088 33.934 67.9633 33.4149 67.8285L26.2581 66.1594L28.8561 59.8265C28.8561 59.8265 32.9574 60.8738 32.8921 60.8084C34.4117 61.152 35.1143 60.1702 35.3921 59.4829L38.7254 45.0826C38.8316 45.1153 38.9174 45.1317 39.0032 45.1481C39.089 45.1644 39.1747 45.1808 39.2809 45.2135C39.1435 45.1183 39.013 45.0846 38.8981 45.055C38.8354 45.0389 38.7773 45.0239 38.7254 45.0008L41.16 34.7079C41.2417 33.5951 40.8169 32.1387 38.5947 31.5824C38.7417 31.5006 34.6404 30.6005 34.6404 30.6005L36.0293 24.7586L43.5947 26.575C44.1829 26.7141 44.7752 26.8368 45.3675 26.9596C45.9599 27.0823 46.5522 27.205 47.1404 27.3441L49.2973 18.3112L54.8528 19.6367L52.7613 28.4732C54.2156 28.7678 55.6862 29.1114 57.1404 29.4551L59.2319 20.6185L64.7221 21.944L62.5653 30.9769Z" fill="#F7931A"/>
</svg>
